# xmcd
#
# Track frame offsets:
#	150
#	17547
#	30215
#	48630
#	61095
#	74482
#	91690
#	106515
#	121185
#	132312
#	144590
#	161202
#	178680
#	203235
#	226315
#	247072
#	261747
#	284325
#	301275
#	339025
#
# Disc length: 4734 seconds
#
# Revision: 32
# Processed by: cddbd v1.5.2PL0 Copyright (c) Steve Scherf et al.
# Submitted via: audiograbber 1.83.01
#
DISCID=16127c14
DTITLE=Various Artist - The Lord Of The Rings-The Two Towers
DYEAR=2002
DGENRE=Soundtrack
TTITLE0=Howard Shore - Foundations Of Stone
TTITLE1=Howard Shore - The Taming Of Sméagol
TTITLE2=Howard Shore - The Riders Of Rohan
TTITLE3=Howard Shore - The Passage Of The Marshes
TTITLE4=Howard Shore - The Uruk-Hai
TTITLE5=Howard Shore - The King Of The Golden Hall
TTITLE6=Howard Shore - The Black Gate Is Closed
TTITLE7=Howard Shore feat. Isabel Bayrakdarian - Evenstar
TTITLE8=Howard Shore - The White Rider
TTITLE9=Howard Shore - Treebeard
TTITLE10=Howard Shore - The Leave Taking
TTITLE11=Howard Shore - Helm's Deep
TTITLE12=Howard Shore - The Forbidden Pool
TTITLE13=Howard Shore feat. Sheila Chandra - Breath Of Life
TTITLE14=Howard Shore - The Hornburg
TTITLE15=Howard Shore feat. Ben Del Maestro - Forth Eorlingas
TTITLE16=Howard Shore feat. Elizabeth Frazer and Ben Del Maestro - Isengard Unlea
TTITLE16=shed
TTITLE17=Howard Shore - Samwise The Brave
TTITLE18=Emiliana Torrini - Gollum's Song
TTITLE19=Howard Shore - DATA
EXTD=
EXTT0=
EXTT1=
EXTT2=
EXTT3=
EXTT4=
EXTT5=
EXTT6=
EXTT7=
EXTT8=
EXTT9=
EXTT10=
EXTT11=
EXTT12=
EXTT13=
EXTT14=
EXTT15=
EXTT16=
EXTT17=
EXTT18=
EXTT19=
PLAYORDER=
